<?xml version="1.0" standalone="no"?>
<!DOCTYPE svg PUBLIC "-//W3C//DTD SVG 20010904//EN"
 "http://www.w3.org/TR/2001/REC-SVG-20010904/DTD/svg10.dtd">
<svg version="1.0" xmlns="http://www.w3.org/2000/svg"
 width="50.000000pt" height="54.000000pt" viewBox="0 0 50.000000 54.000000"
 preserveAspectRatio="xMidYMid meet">

<g transform="translate(0.000000,54.000000) scale(0.100000,-0.100000)"
fill="#000000" stroke="none">
<path d="M5 517 c-3 -7 -4 -125 -3 -262 l3 -250 243 -3 242 -2 0 265 0 265
-240 0 c-185 0 -242 -3 -245 -13z m455 -247 l0 -230 -210 0 -210 0 0 230 0
230 210 0 210 0 0 -230z"/>
<path d="M110 250 l0 -160 56 0 c40 0 55 4 52 13 -3 6 -19 13 -36 15 -32 3
-32 4 -32 58 0 47 2 54 20 54 11 0 20 7 20 15 0 8 -9 15 -20 15 -18 0 -20 7
-20 60 l0 60 100 0 100 0 0 -60 c0 -53 -2 -60 -20 -60 -11 0 -20 -7 -20 -15 0
-8 9 -15 20 -15 18 0 20 -7 20 -55 l0 -55 -35 0 c-24 0 -35 -5 -35 -15 0 -12
13 -15 55 -15 l55 0 0 160 0 160 -140 0 -140 0 0 -160z"/>
</g>
</svg>
